<mxfile host="app.diagrams.net" modified="2023-11-30T13:01:10.217Z" agent="Mozilla/5.0 (Windows NT 10.0; Win64; x64; rv:120.0) Gecko/20100101 Firefox/120.0" etag="1X8V-_oS6O_aE-jReikP" version="22.1.5" type="device">
  <diagram name="Strona-1" id="X458OH6kcllewRC2ajb4">
    <mxGraphModel dx="1050" dy="530" grid="1" gridSize="10" guides="1" tooltips="1" connect="1" arrows="1" fold="1" page="1" pageScale="1" pageWidth="827" pageHeight="1169" math="0" shadow="0">
      <root>
        <mxCell id="0" />
        <mxCell id="1" parent="0" />
        <mxCell id="tyeIw3se-acAxd65CZQF-1" value="ComputerFile" style="swimlane;fontStyle=1;align=center;verticalAlign=top;childLayout=stackLayout;horizontal=1;startSize=26;horizontalStack=0;resizeParent=1;resizeParentMax=0;resizeLast=0;collapsible=1;marginBottom=0;whiteSpace=wrap;html=1;" vertex="1" parent="1">
          <mxGeometry x="100" y="70" width="160" height="190" as="geometry" />
        </mxCell>
        <mxCell id="tyeIw3se-acAxd65CZQF-2" value="&lt;div&gt;- name: string&lt;/div&gt;&lt;div&gt;- type: string&lt;/div&gt;&lt;div&gt;- size: int&lt;/div&gt;&lt;div&gt;- date created: int&lt;/div&gt;&lt;div&gt;- path: string&lt;br&gt;&lt;/div&gt;" style="text;strokeColor=none;fillColor=none;align=left;verticalAlign=top;spacingLeft=4;spacingRight=4;overflow=hidden;rotatable=0;points=[[0,0.5],[1,0.5]];portConstraint=eastwest;whiteSpace=wrap;html=1;" vertex="1" parent="tyeIw3se-acAxd65CZQF-1">
          <mxGeometry y="26" width="160" height="84" as="geometry" />
        </mxCell>
        <mxCell id="tyeIw3se-acAxd65CZQF-3" value="" style="line;strokeWidth=1;fillColor=none;align=left;verticalAlign=middle;spacingTop=-1;spacingLeft=3;spacingRight=3;rotatable=0;labelPosition=right;points=[];portConstraint=eastwest;strokeColor=inherit;" vertex="1" parent="tyeIw3se-acAxd65CZQF-1">
          <mxGeometry y="110" width="160" height="8" as="geometry" />
        </mxCell>
        <mxCell id="tyeIw3se-acAxd65CZQF-4" value="&lt;div&gt;+ open()&lt;/div&gt;&lt;div&gt;+ copy()&lt;/div&gt;&lt;div&gt;+ delete()&lt;/div&gt;&lt;div&gt;+ move()&lt;br&gt;&lt;/div&gt;" style="text;strokeColor=none;fillColor=none;align=left;verticalAlign=top;spacingLeft=4;spacingRight=4;overflow=hidden;rotatable=0;points=[[0,0.5],[1,0.5]];portConstraint=eastwest;whiteSpace=wrap;html=1;" vertex="1" parent="tyeIw3se-acAxd65CZQF-1">
          <mxGeometry y="118" width="160" height="72" as="geometry" />
        </mxCell>
        <mxCell id="tyeIw3se-acAxd65CZQF-5" value="BankAccount" style="swimlane;fontStyle=1;align=center;verticalAlign=top;childLayout=stackLayout;horizontal=1;startSize=26;horizontalStack=0;resizeParent=1;resizeParentMax=0;resizeLast=0;collapsible=1;marginBottom=0;whiteSpace=wrap;html=1;" vertex="1" parent="1">
          <mxGeometry x="470" y="80" width="160" height="140" as="geometry" />
        </mxCell>
        <mxCell id="tyeIw3se-acAxd65CZQF-6" value="&lt;div&gt;- id: string&lt;/div&gt;&lt;div&gt;- accHolder: string&lt;/div&gt;&lt;div&gt;- balance: float&lt;/div&gt;" style="text;strokeColor=none;fillColor=none;align=left;verticalAlign=top;spacingLeft=4;spacingRight=4;overflow=hidden;rotatable=0;points=[[0,0.5],[1,0.5]];portConstraint=eastwest;whiteSpace=wrap;html=1;" vertex="1" parent="tyeIw3se-acAxd65CZQF-5">
          <mxGeometry y="26" width="160" height="64" as="geometry" />
        </mxCell>
        <mxCell id="tyeIw3se-acAxd65CZQF-7" value="" style="line;strokeWidth=1;fillColor=none;align=left;verticalAlign=middle;spacingTop=-1;spacingLeft=3;spacingRight=3;rotatable=0;labelPosition=right;points=[];portConstraint=eastwest;strokeColor=inherit;" vertex="1" parent="tyeIw3se-acAxd65CZQF-5">
          <mxGeometry y="90" width="160" height="8" as="geometry" />
        </mxCell>
        <mxCell id="tyeIw3se-acAxd65CZQF-8" value="&lt;div&gt;+ deposit(float)&lt;/div&gt;&lt;div&gt;+ withdraw(float)&lt;br&gt;&lt;/div&gt;" style="text;strokeColor=none;fillColor=none;align=left;verticalAlign=top;spacingLeft=4;spacingRight=4;overflow=hidden;rotatable=0;points=[[0,0.5],[1,0.5]];portConstraint=eastwest;whiteSpace=wrap;html=1;" vertex="1" parent="tyeIw3se-acAxd65CZQF-5">
          <mxGeometry y="98" width="160" height="42" as="geometry" />
        </mxCell>
        <mxCell id="tyeIw3se-acAxd65CZQF-9" value="Book" style="swimlane;fontStyle=1;align=center;verticalAlign=top;childLayout=stackLayout;horizontal=1;startSize=26;horizontalStack=0;resizeParent=1;resizeParentMax=0;resizeLast=0;collapsible=1;marginBottom=0;whiteSpace=wrap;html=1;" vertex="1" parent="1">
          <mxGeometry x="300" y="280" width="160" height="230" as="geometry" />
        </mxCell>
        <mxCell id="tyeIw3se-acAxd65CZQF-10" value="&lt;div&gt;- title: string&lt;/div&gt;&lt;div&gt;- author: string&lt;/div&gt;&lt;div&gt;- genre: string&lt;/div&gt;&lt;div&gt;- yearPub: int&lt;/div&gt;&lt;div&gt;- pages: int&lt;/div&gt;&lt;div&gt;- isOpened: bool&lt;br&gt;&lt;/div&gt;&lt;div&gt;- currentPage: int&lt;br&gt;&lt;/div&gt;" style="text;strokeColor=none;fillColor=none;align=left;verticalAlign=top;spacingLeft=4;spacingRight=4;overflow=hidden;rotatable=0;points=[[0,0.5],[1,0.5]];portConstraint=eastwest;whiteSpace=wrap;html=1;" vertex="1" parent="tyeIw3se-acAxd65CZQF-9">
          <mxGeometry y="26" width="160" height="114" as="geometry" />
        </mxCell>
        <mxCell id="tyeIw3se-acAxd65CZQF-11" value="" style="line;strokeWidth=1;fillColor=none;align=left;verticalAlign=middle;spacingTop=-1;spacingLeft=3;spacingRight=3;rotatable=0;labelPosition=right;points=[];portConstraint=eastwest;strokeColor=inherit;" vertex="1" parent="tyeIw3se-acAxd65CZQF-9">
          <mxGeometry y="140" width="160" height="8" as="geometry" />
        </mxCell>
        <mxCell id="tyeIw3se-acAxd65CZQF-12" value="&lt;div&gt;+ open()&lt;/div&gt;&lt;div&gt;+ open(int)&lt;br&gt;&lt;/div&gt;&lt;div&gt;+ close()&lt;br&gt;&lt;/div&gt;&lt;div&gt;+ read(int)&lt;/div&gt;&lt;div&gt;+ nextPage()&lt;br&gt;&lt;/div&gt;" style="text;strokeColor=none;fillColor=none;align=left;verticalAlign=top;spacingLeft=4;spacingRight=4;overflow=hidden;rotatable=0;points=[[0,0.5],[1,0.5]];portConstraint=eastwest;whiteSpace=wrap;html=1;" vertex="1" parent="tyeIw3se-acAxd65CZQF-9">
          <mxGeometry y="148" width="160" height="82" as="geometry" />
        </mxCell>
      </root>
    </mxGraphModel>
  </diagram>
</mxfile>
